<?xml version="1.0" encoding="UTF-8"?>
<svg id="Layer_1" xmlns="http://www.w3.org/2000/svg" version="1.1" viewBox="0 0 32 32">
  <!-- Generator: Adobe Illustrator 30.1.0, SVG Export Plug-In . SVG Version: 2.1.1 Build 136)  -->
  <defs>
    <style>
      .st0 {
        fill: #fff;
      }
    </style>
  </defs>
  <path class="st0" d="M16,31.7c-.06,0-.11,0-.17-.01-.08-.01-.22-.04-.38-.1-1.3-.53-12.76-5.32-12.76-10.65V3.94c0-.88.63-1.63,1.51-1.77L15.84.31c.11-.02.21-.02.32,0l11.64,1.86h0c.87.14,1.51.88,1.51,1.77v16.98c0,5.34-11.46,10.13-12.76,10.66-.15.06-.29.09-.37.1-.06,0-.11.01-.17.01ZM4.69,4.12v16.8c0,2.66,5.79,6.45,11.31,8.72,5.5-2.25,11.31-6.05,11.31-8.72V4.12l-11.31-1.81-11.31,1.81Z"/>
  <path class="st0" d="M13.79,21.46c0-1.23.97-2.15,2.32-2.15s2.32.92,2.32,2.15-.97,2.2-2.32,2.2-2.32-.99-2.32-2.2ZM13.86,6.56h4.49l-.71,10.46c-.02.33-.29.58-.62.58h-1.84c-.33,0-.6-.25-.62-.58l-.71-10.46Z"/>
</svg>